<svg height="512pt" viewBox="0 0 512 512" width="512pt" xmlns="http://www.w3.org/2000/svg"><path d="m184.175781 404.660156h143.0625v79.488282h-143.0625zm0 0" fill="#596c76"/><path d="m303.199219 404.660156h24.039062v79.488282h-24.039062zm0 0" fill="#465a61"/><path d="m485.660156 426.007812h-459.40625c-14.5 0-26.253906-11.753906-26.253906-26.253906v-373.5c0-14.5 11.753906-26.253906 26.253906-26.253906h459.402344c14.503906 0 26.257812 11.753906 26.257812 26.253906v373.5c0 14.5-11.753906 26.253906-26.253906 26.253906zm0 0" fill="#d9e7ec"/><path d="m511.914062 26.257812v373.496094c0 14.5-11.753906 26.253906-26.253906 26.253906h-32.070312c14.5 0 26.253906-11.753906 26.253906-26.253906v-373.496094c0-14.5-11.753906-26.25390575-26.253906-26.25390575h32.070312c14.5 0 26.253906 11.75390575 26.253906 26.25390575zm0 0" fill="#c5d3dd"/><path d="m511.914062 383.308594h-511.914062v16.445312c0 14.5 11.753906 26.253906 26.253906 26.253906h459.402344c14.503906 0 26.257812-11.753906 26.257812-26.253906zm0 0" fill="#8d9ca8"/><path d="m511.914062 383.308594v16.445312c0 14.5-11.753906 26.253906-26.253906 26.253906h-32.070312c14.5 0 26.160156-11.753906 26.160156-26.253906v-16.445312zm0 0" fill="#7a8c98"/><path d="m512 44.691406h-511.429688l-.4999995-18.4375c0-14.5 11.7539065-26.253906 26.2499995-26.253906h459.425782c14.5 0 26.253906 11.753906 26.253906 26.253906zm0 0" fill="#8d9ca8"/><path d="m511.914062 26.253906v18.441406h-32.082031v-18.453124c0-14.488282-11.667969-26.23828175-26.167969-26.23828175h32c14.5 0 26.25 11.74999975 26.25 26.24999975zm0 0" fill="#7a8c98"/><path d="m373.597656 511.429688h-235.777344c-2.84375 0-5.148437-2.300782-5.148437-5.144532v-16.675781c0-11.308594 9.167969-20.476563 20.476563-20.476563h205.117187c11.308594 0 20.476563 9.167969 20.476563 20.476563v16.675781c0 2.84375-2.304688 5.144532-5.144532 5.144532zm0 0" fill="#8d9ca8"/><path d="m378.742188 489.605469v16.683593c0 2.839844-2.304688 5.144532-5.148438 5.144532h-18.164062v-21.828125c0-11.300781-9.171876-20.472657-20.472657-20.472657h23.3125c11.304688 0 20.472657 9.164063 20.472657 20.472657zm0 0" fill="#7a8c98"/><path d="m441.824219 350.433594h-371.644531c-5.523438 0-10-4.476563-10-10v-61.996094c0-5.523438 4.476562-10 10-10h371.644531c5.523437 0 10 4.476562 10 10v61.996094c0 5.523437-4.476563 10-10 10zm0 0" fill="#ea4444"/><path d="m451.820312 278.433594v62c0 5.519531-4.46875 10-10 10h-25.46875c5.53125 0 10-4.480469 10-10v-62c0-5.519532-4.46875-10-10-10h25.46875c5.53125 0 10 4.480468 10 10zm0 0" fill="#d93131"/><path d="m70.179688 268.4375c-5.523438 0-10 4.476562-10 10v61.992188c0 5.523437 4.476562 10 10 10h71.585937v-81.992188zm0 0" fill="#f7c22c"/><path d="m115.722656 268.433594h26.039063v82h-26.039063zm0 0" fill="#eeb900"/><path d="m284.003906 357.933594c-4.144531 0-7.5-3.355469-7.5-7.5v-102.5625c0-4.140625 3.355469-7.5 7.5-7.5 4.140625 0 7.5 3.359375 7.5 7.5v102.5625c0 4.144531-3.359375 7.5-7.5 7.5zm0 0" fill="#0396fd"/><path d="m290.9375 247.871094h-13.871094c-2.757812 0-5-2.238282-5-5v-13.867188c0-2.761718 2.242188-5 5-5h13.871094c2.757812 0 5 2.238282 5 5v13.867188c0 2.761718-2.238281 5-5 5zm0 0" fill="#596c76"/><path d="m295.933594 229.003906v13.871094c0 2.757812-2.230469 5-5 5h-9.929688c2.757813 0 5-2.242188 5-5v-13.871094c0-2.761718-2.242187-5-5-5h9.929688c2.769531 0 5 2.238282 5 5zm0 0" fill="#465a61"/><path d="m251.277344 201.734375h-181.097656c-5.523438 0-10-4.476563-10-10v-101.957031c0-5.523438 4.476562-10 10-10h181.097656c5.523437 0 10 4.476562 10 10v101.957031c0 5.523437-4.476563 10-10 10zm0 0" fill="#f7c22c"/><path d="m261.273438 89.773438v101.960937c0 5.519531-4.472657 10-10 10h-22.742188c5.53125 0 10-4.480469 10-10v-101.960937c0-5.519532-4.46875-10-10-10h22.742188c5.527343 0 10 4.480468 10 10zm0 0" fill="#eeb900"/><path d="m180.394531 135.425781-33.179687-19.15625c-4.101563-2.367187-9.226563.59375-9.226563 5.328125v38.3125c0 4.734375 5.125 7.695313 9.226563 5.328125l33.179687-19.15625c4.097657-2.367187 4.097657-8.285156 0-10.65625zm0 0" fill="#d9e7ec"/><path d="m180.390625 146.085938-33.171875 19.152343c-4.101562 2.371094-9.230469-.589843-9.230469-5.328125v-4.980468l38.097657-21.988282 4.304687 2.488282c4.101563 2.367187 4.101563 8.285156 0 10.65625zm0 0" fill="#c5d3dd"/><path d="m451.824219 122.933594h-155.886719c-4.144531 0-7.5-3.355469-7.5-7.5 0-4.144532 3.355469-7.5 7.5-7.5h155.886719c4.144531 0 7.5 3.355468 7.5 7.5 0 4.144531-3.355469 7.5-7.5 7.5zm0 0" fill="#596c76"/><path d="m451.824219 178.066406h-155.886719c-4.144531 0-7.5-3.355468-7.5-7.5 0-4.140625 3.355469-7.5 7.5-7.5h155.886719c4.144531 0 7.5 3.359375 7.5 7.5 0 4.144532-3.355469 7.5-7.5 7.5zm0 0" fill="#596c76"/><path d="m414.433594 132.460938h-14.859375c-3.558594 0-6.4375-2.882813-6.4375-6.4375v-21.175782c0-3.558594 2.878906-6.441406 6.4375-6.441406h14.859375c3.554687 0 6.4375 2.882812 6.4375 6.441406v21.175782c-.003906 3.554687-2.882813 6.4375-6.4375 6.4375zm0 0" fill="#0396fd"/><path d="m361.4375 187.59375h-14.859375c-3.554687 0-6.4375-2.882812-6.4375-6.441406v-21.175782c0-3.554687 2.882813-6.4375 6.4375-6.4375h14.859375c3.558594 0 6.441406 2.882813 6.441406 6.4375v21.175782c0 3.558594-2.882812 6.441406-6.441406 6.441406zm0 0" fill="#0396fd"/><path d="m420.871094 104.84375v21.179688c0 3.550781-2.890625 6.441406-6.4375 6.441406h-12.632813c3.5625 0 6.441407-2.890625 6.441407-6.441406v-21.179688c0-3.550781-2.878907-6.441406-6.441407-6.441406h12.632813c3.546875 0 6.4375 2.890625 6.4375 6.441406zm0 0" fill="#0077f0"/><path d="m367.871094 159.972656v21.179688c0 3.5625-2.878906 6.441406-6.429688 6.441406h-12.628906c3.550781 0 6.441406-2.878906 6.441406-6.441406v-21.179688c0-3.546875-2.890625-6.429687-6.441406-6.429687h12.628906c3.550782 0 6.429688 2.882812 6.429688 6.429687zm0 0" fill="#0077f0"/><g fill="#596c76"><path d="m115.722656 296.4375h-29.5c-4.144531 0-7.5-3.359375-7.5-7.5 0-4.144531 3.355469-7.5 7.5-7.5h29.5c4.140625 0 7.5 3.355469 7.5 7.5 0 4.140625-3.359375 7.5-7.5 7.5zm0 0"/><path d="m115.722656 337.429688h-29.5c-4.144531 0-7.5-3.355469-7.5-7.5 0-4.144532 3.355469-7.5 7.5-7.5h29.5c4.140625 0 7.5 3.355468 7.5 7.5 0 4.144531-3.359375 7.5-7.5 7.5zm0 0"/></g></svg>