<svg id="Layer_3" height="512" viewBox="0 0 64 64" width="512" xmlns="http://www.w3.org/2000/svg" data-name="Layer 3"><rect fill="#ccc" height="50" rx="4" width="60" x="2" y="7"/><path d="m4 19h56a0 0 0 0 1 0 0v33a3 3 0 0 1 -3 3h-50a3 3 0 0 1 -3-3v-33a0 0 0 0 1 0 0z" fill="#fff"/><circle cx="32" cy="38" fill="#559b38" r="13"/><path d="m32 25a12.986 12.986 0 0 0 -10.943 20h15.943a3 3 0 0 0 3-3v-14.233a12.931 12.931 0 0 0 -8-2.767z" fill="#6bc148"/><path d="m32 25v13h13a13 13 0 0 0 -13-13z" fill="#f3a845"/><path d="m32 38v-13a12.956 12.956 0 0 0 -9.192 3.808z" fill="#d24034"/><path d="m40 27.767a12.931 12.931 0 0 0 -8-2.767v13h8z" fill="#eecc61"/><path d="m58 7h-52a4 4 0 0 0 -4 4v8h60v-8a4 4 0 0 0 -4-4z" fill="#aa2b24"/><path d="m54 16a3 3 0 0 0 3-3v-6h-51a4 4 0 0 0 -4 4v5z" fill="#d24034"/><circle cx="8" cy="13" fill="#fff" r="2"/><circle cx="15" cy="13" fill="#fff" r="2"/><circle cx="22" cy="13" fill="#fff" r="2"/><rect fill="#fff" height="4" rx="2" width="22" x="28" y="11"/><path d="m59.707 15.293-1.007-1.008a2.951 2.951 0 0 0 .3-1.285 3 3 0 1 0 -3 3 2.951 2.951 0 0 0 1.285-.3l1.008 1.008zm-4.707-2.293a1 1 0 1 1 1 1 1 1 0 0 1 -1-1z" fill="#fff"/><g fill="#939393"><path d="m38.707 32.707-1.415-1.414 5-5a1 1 0 0 1 .708-.293h14v2h-13.586z"/><path d="m20 51h-13v-2h12.586l6.707-6.707 1.414 1.414-7 7a1 1 0 0 1 -.707.293z"/><path d="m7 45h5v2h-5z"/><path d="m44 22h9v2h-9z"/><path d="m55 22h2v2h-2z"/><path d="m14 45h2v2h-2z"/></g><path d="m42 53-2-8 8 1.999-4 2.001z" fill="#bce4f8"/></svg>