<svg width="401" height="316" viewBox="0 0 401 316" fill="none" xmlns="http://www.w3.org/2000/svg">
<path fill-rule="evenodd" clip-rule="evenodd" d="M129.037 78.053C168.97 50.0257 203.139 12.2862 251.258 4.24157C304.014 -4.57818 358.612 5.83262 405.34 31.8606C455.662 59.8904 509.228 98.1098 521.008 154.494C532.565 209.813 479.146 255.247 463.346 309.506C447.198 364.958 464.492 430.178 427.751 474.74C387.436 523.637 323.64 562.62 260.69 555.299C198.749 548.095 165.14 482.068 120.081 438.959C83.109 403.586 40.4341 373.829 21.3806 326.341C1.6614 277.193 -8.25653 220.183 12.81 171.597C33.0901 124.825 87.3096 107.34 129.037 78.053Z" stroke="url(#paint0_linear)"/>
<defs>
<linearGradient id="paint0_linear" x1="139.234" y1="60.0522" x2="447.113" y2="468.909" gradientUnits="userSpaceOnUse">
<stop stop-color="#232425"/>
<stop offset="1" stop-color="#232425" stop-opacity="0"/>
<stop offset="1" stop-color="#0E4861" stop-opacity="0.71"/>
</linearGradient>
</defs>
</svg>
