<svg id="Layer_1" enable-background="new 0 0 512 512" height="512" viewBox="0 0 512 512" width="512" xmlns="http://www.w3.org/2000/svg"><g><path d="m497 62.87v326.1c0 15.41-12.49 27.91-27.91 27.91l-22.84 1.86-90.31 7.36c-6 .49-11.38 3.91-14.35 9.14l-.01.01c-3.23 5.69-9.28 9.21-15.83 9.21h-138.48c-3.27 0-6.42-.88-9.16-2.47-2.73-1.59-5.05-3.89-6.67-6.74-2.98-5.24-8.36-8.66-14.37-9.15l-114.16-9.22c-15.41 0-27.91-12.5-27.91-27.91v-326.1c0-15.42 12.49-27.91 27.91-27.91h426.18c15.42 0 27.91 12.49 27.91 27.91z" fill="#b9f6d3"/><path d="m497 62.87v326.1c0 15.41-12.49 27.91-27.91 27.91l-22.84 1.86c11.95-3.83 20.75-16.83 20.75-29.77v-326.1c0-15.41-12.5-27.91-27.91-27.91h30c15.42 0 27.91 12.49 27.91 27.91z" fill="#93d8e4"/><path d="m497 382.09v6.88c0 15.41-12.49 27.91-27.91 27.91l-22.84 1.86-90.31 7.36c-6 .49-11.38 3.91-14.35 9.14l-.01.01c-3.23 5.69-9.28 9.21-15.83 9.21h-138.48c-3.27 0-6.42-.88-9.16-2.47-2.73-1.59-5.05-3.89-6.67-6.74-2.98-5.24-8.36-8.66-14.37-9.15l-114.16-9.22c-15.41 0-27.91-12.5-27.91-27.91v-6.88z" fill="#4f667a"/><path d="m497 62.87v7h-482v-7c0-15.42 12.49-27.91 27.91-27.91h426.18c15.42 0 27.91 12.49 27.91 27.91z" fill="#4f667a"/><path d="m497 62.87v7h-30v-7c0-15.41-12.5-27.91-27.91-27.91h30c15.42 0 27.91 12.49 27.91 27.91z" fill="#3a5366"/><path d="m467 382.09h30v6.88c0 15.41-12.49 27.91-27.91 27.91l-22.84 1.86c11.95-3.83 20.75-16.83 20.75-29.77z" fill="#3a5366"/><path d="m512 424.38v19.08c0 18.52-15.06 33.58-33.58 33.58h-444.84c-18.52 0-33.58-15.06-33.58-33.58v-19.08c0-4.14 3.36-7.5 7.5-7.5h166.9c9.66 0 18.37 5.35 22.74 13.96 1.8 3.55 5.38 5.75 9.36 5.75h99c3.98 0 7.56-2.2 9.36-5.75 4.37-8.61 13.08-13.96 22.74-13.96h166.9c4.14 0 7.5 3.36 7.5 7.5z" fill="#aac3d6"/><path d="m512 424.38v19.08c0 18.52-15.06 33.58-33.58 33.58h-30c18.52 0 33.58-15.06 33.58-33.58v-19.08c0-4.14-3.36-7.5-7.5-7.5h30c4.14 0 7.5 3.36 7.5 7.5z" fill="#8aabbf"/><path d="m378.03 195.96c0 44-33.54 72.63-84.3 115.96l-27.63 23.81c-2.61 2.3-6.04 3.59-9.59 3.59s-6.98-1.29-9.64-3.64l-5.36-4.62-22.24-19.16c-50.74-43.31-84.28-71.94-84.28-115.94 0-41.8 29.26-73.32 68.07-73.32 14.08 0 26.97 4.46 38.32 13.25 6.26 4.85 11.26 10.45 15.13 15.74 3.87-5.29 8.88-10.89 15.14-15.74 7.28-5.64 15.19-9.5 23.65-11.53 4.72-1.14 9.61-1.72 14.66-1.72 38.81 0 68.07 31.52 68.07 73.32z" fill="#ff6e6e"/><path d="m378.03 195.96c0 44-33.54 72.63-84.3 115.96l-27.63 23.81c-2.61 2.3-6.04 3.59-9.59 3.59s-6.98-1.29-9.64-3.64l-5.36-4.62 22.22-19.14c50.76-43.33 84.3-71.96 84.3-115.96 0-36.08-21.8-64.5-52.73-71.6 4.72-1.14 9.61-1.72 14.66-1.72 38.81 0 68.07 31.52 68.07 73.32z" fill="#f44e92"/><path d="m389.74 226.761h-75.973l-16.952-29.96c-1.331-2.353-3.825-3.807-6.527-3.807s-5.196 1.454-6.527 3.807l-27.249 48.158-22.814-40.319c-1.331-2.353-3.825-3.807-6.527-3.807s-5.197 1.454-6.527 3.807l-12.517 22.121h-85.867c-4.142 0-7.5 3.358-7.5 7.5s3.358 7.5 7.5 7.5h90.239c2.703 0 5.197-1.454 6.527-3.807l8.143-14.392 22.814 40.319c1.331 2.353 3.825 3.807 6.527 3.807s5.197-1.454 6.527-3.807l27.249-48.158 12.579 22.23c1.331 2.353 3.825 3.807 6.527 3.807h80.347c4.142 0 7.5-3.358 7.5-7.5s-3.357-7.499-7.499-7.499z" fill="#e9f5ff"/></g></svg>