<svg width="157" height="152" viewBox="0 0 157 152" fill="none" xmlns="http://www.w3.org/2000/svg">
<path fill-rule="evenodd" clip-rule="evenodd" d="M72.8316 3.41659C87.3983 3.895 102.335 1.08324 115.264 7.6832C129.439 14.9191 140.598 26.9819 147.072 41.3137C154.044 56.7477 159.959 75.1393 152.638 90.4168C145.455 105.405 124.541 106.625 111.02 116.542C97.2012 126.678 89.6077 144.996 72.8316 148.952C54.4231 153.292 32.1929 151.172 18.4856 138.36C4.99782 125.753 8.84264 104.37 5.83663 86.3331C3.37005 71.5334 -1.46678 57.0433 2.52023 42.5662C6.64653 27.5832 14.5248 12.4874 28.2835 4.82654C41.5286 -2.54837 57.6103 2.91668 72.8316 3.41659Z" stroke="url(#paint0_linear)"/>
<defs>
<linearGradient id="paint0_linear" x1="78.5" y1="1" x2="78.5" y2="151" gradientUnits="userSpaceOnUse">
<stop stop-color="#e5e7eb"/>
<stop offset="1" stop-color="#0E4861" stop-opacity="0.51"/>
</linearGradient>
</defs>
</svg>
