<svg width="261" height="254" viewBox="0 0 261 254" fill="none" xmlns="http://www.w3.org/2000/svg">
<path fill-rule="evenodd" clip-rule="evenodd" d="M121.028 5.05987C145.369 5.8636 170.327 1.13985 191.931 12.2278C215.618 24.3841 234.263 44.6497 245.082 68.7271C256.732 94.6562 266.616 125.554 254.382 151.22C242.379 176.401 207.434 178.45 184.84 195.111C161.749 212.139 149.061 242.914 121.028 249.559C90.2682 256.85 53.1223 253.288 30.2178 231.764C7.68023 210.585 14.1048 174.661 9.08185 144.36C4.96027 119.496 -3.12192 95.1528 3.54025 70.8311C10.4352 45.6597 23.5995 20.2989 46.5899 7.42858C68.722 -4.96126 95.594 4.22003 121.028 5.05987Z" stroke="url(#paint0_linear)"/>
<defs>
<linearGradient id="paint0_linear" x1="130.5" y1="1" x2="130.5" y2="253" gradientUnits="userSpaceOnUse">
<stop stop-color="#e5e7eb"/>
<stop offset="1" stop-color="#0E4861" stop-opacity="0.51"/>
</linearGradient>
</defs>
</svg>
