<svg width="405" height="376" viewBox="0 0 405 376" fill="none" xmlns="http://www.w3.org/2000/svg">
<path fill-rule="evenodd" clip-rule="evenodd" d="M135.178 8.89419C182.262 10.457 230.54 1.27193 272.331 22.8318C318.148 46.4691 354.216 85.8743 375.143 132.691C397.678 183.109 416.797 243.188 393.132 293.095C369.915 342.058 302.318 346.041 258.612 378.439C213.947 411.548 189.403 471.388 135.178 484.309C75.6771 498.487 3.82343 491.561 -40.4822 449.708C-84.078 408.527 -71.6506 338.674 -81.3668 279.755C-89.3394 231.409 -104.973 184.075 -92.0862 136.783C-78.7489 87.8384 -53.2843 38.5256 -8.81259 13.5C33.999 -10.5913 85.9792 7.26117 135.178 8.89419Z" stroke="url(#paint0_linear)"/>
<defs>
<linearGradient id="paint0_linear" x1="153.5" y1="1" x2="153.5" y2="491" gradientUnits="userSpaceOnUse">
<stop stop-color="#e5e7eb"/>
<stop offset="1" stop-color="#0E4861" stop-opacity="0.51"/>
</linearGradient>
</defs>
</svg>
