<svg width="376" height="348" viewBox="0 0 376 348" fill="none" xmlns="http://www.w3.org/2000/svg">
<path fill-rule="evenodd" clip-rule="evenodd" d="M137.299 7.992C178.932 9.3762 221.621 1.24085 258.574 20.3367C299.087 41.2726 330.98 76.1744 349.483 117.641C369.41 162.297 386.316 215.51 365.391 259.713C344.861 303.08 285.089 306.608 246.444 335.303C206.949 364.628 185.246 417.629 137.299 429.073C84.6865 441.631 21.1513 435.497 -18.0252 398.428C-56.574 361.952 -45.5852 300.083 -54.1766 247.897C-61.2262 205.077 -75.0502 163.152 -63.6551 121.265C-51.8618 77.914 -29.3452 34.237 9.97809 12.0714C47.8334 -9.26661 93.796 6.5456 137.299 7.992Z" stroke="url(#paint0_linear)"/>
<defs>
<linearGradient id="paint0_linear" x1="153.5" y1="1" x2="153.5" y2="435" gradientUnits="userSpaceOnUse">
<stop stop-color="#e5e7eb"/>
<stop offset="1" stop-color="#0E4861" stop-opacity="0.51"/>
</linearGradient>
</defs>
</svg>
