<svg width="348" height="321" viewBox="0 0 348 321" fill="none" xmlns="http://www.w3.org/2000/svg">
<path fill-rule="evenodd" clip-rule="evenodd" d="M139.347 7.12203C175.717 8.334 213.01 1.21089 245.291 17.9308C280.683 36.2617 308.544 66.8209 324.709 103.128C342.117 142.228 356.885 188.82 338.605 227.523C320.671 265.494 268.455 268.583 234.695 293.708C200.193 319.384 181.233 365.791 139.347 375.811C93.3853 386.806 37.8816 381.435 3.65748 348.978C-30.0183 317.041 -20.4187 262.87 -27.924 217.177C-34.0825 179.685 -46.159 142.976 -36.2043 106.301C-25.9019 68.3441 -6.23159 30.1015 28.1208 10.6939C61.1908 -7.9892 101.343 5.8556 139.347 7.12203Z" stroke="url(#paint0_linear)"/>
<defs>
<linearGradient id="paint0_linear" x1="153.5" y1="1" x2="153.5" y2="381" gradientUnits="userSpaceOnUse">
<stop stop-color="#e5e7eb"/>
<stop offset="1" stop-color="#0E4861" stop-opacity="0.51"/>
</linearGradient>
</defs>
</svg>
