<svg width="454" height="413" viewBox="0 0 454 413" fill="none" xmlns="http://www.w3.org/2000/svg">
<path fill-rule="evenodd" clip-rule="evenodd" d="M140.325 10.2703C195.144 12.1055 251.354 1.31934 300.011 26.6375C353.357 54.3952 395.351 100.669 419.715 155.648C445.954 214.854 468.214 285.406 440.661 344.012C413.629 401.51 334.925 406.188 284.039 444.233C232.036 483.114 203.459 553.385 140.325 568.558C71.0479 585.208 -12.6113 577.074 -64.1963 527.927C-114.955 479.566 -100.486 397.537 -111.798 328.347C-121.081 271.574 -139.283 215.988 -124.279 160.452C-108.75 102.976 -79.1018 45.067 -27.3234 15.679C22.522 -12.6119 83.0426 8.3526 140.325 10.2703Z" stroke="url(#paint0_linear)"/>
<defs>
<linearGradient id="paint0_linear" x1="161.657" y1="1" x2="161.657" y2="576.416" gradientUnits="userSpaceOnUse">
<stop stop-color="#e5e7eb"/>
<stop offset="1" stop-color="#0E4861" stop-opacity="0.51"/>
</linearGradient>
</defs>
</svg>
