<svg width="323" height="296" viewBox="0 0 323 296" fill="none" xmlns="http://www.w3.org/2000/svg">
<path fill-rule="evenodd" clip-rule="evenodd" d="M141.176 6.3165C172.847 7.369 205.321 1.18314 233.432 15.703C264.251 31.622 288.513 58.1603 302.589 89.6902C317.748 123.645 330.608 164.106 314.69 197.717C299.072 230.692 253.603 233.375 224.204 255.193C194.16 277.491 177.65 317.792 141.176 326.494C101.152 336.042 52.8194 331.378 23.017 303.191C-6.30797 275.457 2.05142 228.413 -4.48424 188.733C-9.84706 156.174 -20.3633 124.295 -11.6947 92.4455C-2.72334 59.483 14.4056 26.2723 44.3197 9.41838C73.1171 -6.80641 108.082 5.2167 141.176 6.3165Z" stroke="url(#paint0_linear)"/>
<defs>
<linearGradient id="paint0_linear" x1="153.5" y1="1" x2="153.5" y2="331" gradientUnits="userSpaceOnUse">
<stop stop-color="#e5e7eb"/>
<stop offset="1" stop-color="#0E4861" stop-opacity="0.51"/>
</linearGradient>
</defs>
</svg>
