<svg width="438" height="397" viewBox="0 0 438 397" fill="none" xmlns="http://www.w3.org/2000/svg">
<path fill-rule="evenodd" clip-rule="evenodd" d="M141.35 9.74805C193.132 11.4799 246.228 1.30135 292.19 25.1932C342.58 51.3872 382.248 95.0546 405.263 146.936C430.047 202.807 451.075 269.384 425.048 324.689C399.513 378.948 325.17 383.362 277.103 419.264C227.98 455.954 200.986 522.267 141.35 536.585C75.9104 552.297 -3.11435 544.621 -51.8417 498.242C-99.7884 452.606 -86.1207 375.198 -96.8066 309.906C-105.575 256.331 -122.769 203.877 -108.596 151.469C-93.9275 97.2311 -65.9215 42.5845 -17.0114 14.8521C30.0727 -11.8451 87.2406 7.9384 141.35 9.74805Z" stroke="url(#paint0_linear)"/>
<defs>
<linearGradient id="paint0_linear" x1="161.5" y1="1" x2="161.5" y2="544" gradientUnits="userSpaceOnUse">
<stop stop-color="#e5e7eb"/>
<stop offset="1" stop-color="#0E4861" stop-opacity="0.51"/>
</linearGradient>
</defs>
</svg>
