<svg width="225" height="218" viewBox="0 0 225 218" fill="none" xmlns="http://www.w3.org/2000/svg">
<path fill-rule="evenodd" clip-rule="evenodd" d="M104.345 4.47989C125.302 5.1688 146.791 1.11987 165.393 10.6238C185.787 21.0435 201.841 38.414 211.155 59.0518C221.186 81.2767 229.696 107.761 219.163 129.76C208.828 151.344 178.74 153.1 159.287 167.381C139.406 181.976 128.481 208.355 104.345 214.05C77.8603 220.3 45.8775 217.247 26.1566 198.798C6.7517 180.644 12.2833 149.852 7.9585 123.88C4.40981 102.568 -2.54898 81.7024 3.18716 60.8553C9.12372 39.2798 20.4583 17.5419 40.2531 6.51021C59.3089 -4.10965 82.4458 3.76002 104.345 4.47989Z" stroke="url(#paint0_linear)"/>
<defs>
<linearGradient id="paint0_linear" x1="112.5" y1="1" x2="112.5" y2="217" gradientUnits="userSpaceOnUse">
<stop stop-color="#e5e7eb"/>
<stop offset="1" stop-color="#0E4861" stop-opacity="0.51"/>
</linearGradient>
</defs>
</svg>
