<svg width="185" height="180" viewBox="0 0 185 180" fill="none" xmlns="http://www.w3.org/2000/svg">
<path fill-rule="evenodd" clip-rule="evenodd" d="M85.8076 3.86769C103.006 4.4354 120.64 1.09878 135.905 8.93073C152.641 17.5173 165.816 31.8319 173.459 48.839C181.691 67.154 188.675 88.9786 180.03 107.108C171.55 124.894 146.859 126.342 130.894 138.11C114.579 150.138 105.614 171.876 85.8076 176.569C64.0737 181.72 37.8277 179.204 21.6442 164C5.72001 149.04 10.2594 123.665 6.71034 102.262C3.79819 84.6997 -1.9124 67.5047 2.79485 50.3252C7.66655 32.5454 16.968 14.6318 33.2122 5.54082C48.8499 -3.21073 67.8367 3.27446 85.8076 3.86769Z" stroke="url(#paint0_linear)"/>
<defs>
<linearGradient id="paint0_linear" x1="92.5" y1="1" x2="92.5" y2="179" gradientUnits="userSpaceOnUse">
<stop stop-color="#e5e7eb"/>
<stop offset="1" stop-color="#0E4861" stop-opacity="0.51"/>
</linearGradient>
</defs>
</svg>
