<svg width="299" height="276" viewBox="0 0 299 276" fill="none" xmlns="http://www.w3.org/2000/svg">
<path fill-rule="evenodd" clip-rule="evenodd" d="M138.639 5.67207C166.55 6.597 195.17 1.16094 219.945 13.9209C247.106 27.9103 268.487 51.2318 280.893 78.9399C294.252 108.779 305.587 144.336 291.558 173.872C277.794 202.851 237.721 205.208 211.812 224.382C185.334 243.977 170.784 279.393 138.639 287.04C103.365 295.431 60.7696 291.332 34.5046 266.562C8.66034 242.189 16.0275 200.848 10.2676 165.977C5.54132 137.365 -3.72668 109.35 3.91295 81.3612C11.8195 52.3942 26.9153 23.209 53.2788 8.39797C78.6581 -5.86018 109.473 4.70559 138.639 5.67207Z" stroke="url(#paint0_linear)"/>
<defs>
<linearGradient id="paint0_linear" x1="149.5" y1="1" x2="149.5" y2="291" gradientUnits="userSpaceOnUse">
<stop stop-color="#e5e7eb"/>
<stop offset="1" stop-color="#0E4861" stop-opacity="0.51"/>
</linearGradient>
</defs>
</svg>
