<svg id="Layer_1" height="512" viewBox="0 0 512 512" width="512" xmlns="http://www.w3.org/2000/svg" data-name="Layer 1"><path d="m456.08 163.28a21.686 21.686 0 0 1 0 30.67l-259.36 259.36-138.03-138.03 259.36-259.36a21.686 21.686 0 0 1 30.67 0z" fill="#a4bdc1"/><path d="m196.72 453.31-14.11 14.1a97.595 97.595 0 0 1 -138.02-138.02l14.1-14.11z" fill="#84a0a3"/><path d="m348.72 55.92a21.686 21.686 0 0 0 -30.67 0l-259.36 259.36 20 20.005 259.36-259.365a21.686 21.686 0 0 1 30.67 0z" fill="#889c9e"/><path d="m64.59 349.39 14.1-14.1-20-20.005-14.1 14.11a97.589 97.589 0 0 0 10.729 147.286 97.594 97.594 0 0 1 9.271-127.291z" fill="#5e7172"/><g fill="#6b8384"><path d="m386.36 215.51a12.735 12.735 0 1 1 -18.01 0 12.741 12.741 0 0 1 18.01 0z"/><circle cx="216.975" cy="205.155" r="12.735"/><ellipse cx="282.185" cy="199.855" rx="12.732" ry="12.738"/><ellipse cx="312.145" cy="229.815" rx="12.738" ry="12.732"/><circle cx="342.095" cy="259.77" r="12.733"/></g><path d="m168.71 301.55a29.526 29.526 0 0 0 0 41.74l-20.86 20.86a59.076 59.076 0 0 1 0-83.47z" fill="#e87187"/><path d="m210.45 343.29 20.87 20.86a59.076 59.076 0 0 1 -83.47 0l20.86-20.86a29.526 29.526 0 0 0 41.74 0z" fill="#53d8d8"/><circle cx="347.395" cy="194.56" fill="#6b8384" r="12.73"/><circle cx="246.935" cy="235.115" fill="#6b8384" r="12.735"/><path d="m231.32 280.68-20.87 20.87a29.508 29.508 0 0 0 -41.74 0l-20.86-20.87a59.076 59.076 0 0 1 83.47 0z" fill="#53d8d8"/><circle cx="276.885" cy="265.065" fill="#6b8384" r="12.735"/><circle cx="306.845" cy="295.025" fill="#6b8384" r="12.735"/><circle cx="317.44" cy="164.605" fill="#6b8384" r="12.733"/><circle cx="252.23" cy="169.905" fill="#6b8384" r="12.73"/><path d="m296.49 125.64a12.735 12.735 0 1 1 -18.01 0 12.741 12.741 0 0 1 18.01 0z" fill="#6b8384"/><path d="m331.74 90.39a12.735 12.735 0 1 1 -18.01 0 12.741 12.741 0 0 1 18.01 0z" fill="#eb7288"/><path d="m231.32 280.68a59.076 59.076 0 0 1 0 83.47l-20.87-20.86a29.508 29.508 0 0 0 0-41.74z" fill="#e87187"/><path d="m210.794 301.206a30 30 0 1 1 -42.428 0 29.994 29.994 0 0 1 42.428 0z" fill="#5fa8ed"/><circle cx="189.585" cy="322.415" fill="#6b8384" r="9.998"/><path d="m439.234 107.081a6 6 0 0 1 -6-5.99 22.355 22.355 0 0 0 -22.325-22.325 6 6 0 0 1 .01-12h.01a34.356 34.356 0 0 1 34.305 34.3 6 6 0 0 1 -5.99 6.01z" fill="#b0b5ca"/><path d="m467.621 107.081a6 6 0 0 1 -6-6 50.752 50.752 0 0 0 -50.7-50.705 6 6 0 0 1 0-12 62.75 62.75 0 0 1 62.7 62.7 6 6 0 0 1 -6 6z" fill="#b0b5ca"/><path d="m496 107.081a6 6 0 0 1 -6-6 79.121 79.121 0 0 0 -79.083-79.081 6 6 0 0 1 0-12 91.119 91.119 0 0 1 91.083 91.079 6 6 0 0 1 -6 6z" fill="#b0b5ca"/><path d="m496 107.081a6 6 0 0 1 -6-6 79.121 79.121 0 0 0 -79.083-79.081 6 6 0 0 1 0-12 91.119 91.119 0 0 1 91.083 91.079 6 6 0 0 1 -6 6z" fill="#b0b5ca"/><g id="_Path_3" data-name=" Path 3"><path d="m182.673 226.768a6 6 0 0 1 -4.243-10.243l2.178-2.178a6 6 0 0 1 8.486 8.486l-2.179 2.178a5.982 5.982 0 0 1 -4.242 1.757z" fill="#f4f8fc"/></g><g id="_Path_3-2" data-name=" Path 3-2"><path d="m124.934 284.506a6 6 0 0 1 -4.243-10.243l42.7-42.7a6 6 0 0 1 8.485 8.486l-42.7 42.7a5.986 5.986 0 0 1 -4.242 1.757z" fill="#f4f8fc"/></g></svg>