<svg width="56" height="56" viewBox="0 0 56 56" fill="none" xmlns="http://www.w3.org/2000/svg">
<path d="M28 42.4958C36.0058 42.4958 42.4958 36.0058 42.4958 28C42.4958 19.9942 36.0058 13.5042 28 13.5042C19.9942 13.5042 13.5042 19.9942 13.5042 28C13.5042 36.0058 19.9942 42.4958 28 42.4958Z" fill="#FFE07D"/>
<path d="M28 42.4958C36.0058 42.4958 42.4958 36.0058 42.4958 28C42.4958 19.9942 36.0058 13.5042 28 13.5042C19.9942 13.5042 13.5042 19.9942 13.5042 28C13.5042 36.0058 19.9942 42.4958 28 42.4958Z" fill="#FFE07D"/>
<path d="M28 13.5042C27.5762 13.5042 27.1568 13.5235 26.7422 13.5591C34.1589 14.1968 39.9802 20.4181 39.9802 28C39.9802 35.5819 34.1589 41.8032 26.7422 42.4409C27.1568 42.4766 27.5762 42.4958 28 42.4958C36.0058 42.4958 42.4958 36.0058 42.4958 28C42.4958 19.9942 36.0058 13.5042 28 13.5042Z" fill="#FFD064"/>
<path d="M28 10.7006C27.547 10.7006 27.1797 10.3333 27.1797 9.88028V0.820312C27.1797 0.367281 27.547 0 28 0C28.453 0 28.8203 0.367281 28.8203 0.820312V9.88028C28.8203 10.3333 28.453 10.7006 28 10.7006Z" fill="#FFE07D"/>
<path d="M15.1874 16.0077C14.9774 16.0077 14.7675 15.9276 14.6073 15.7674L8.20102 9.36109C7.88066 9.04073 7.88066 8.5213 8.20102 8.20105C8.52138 7.8807 9.04081 7.8807 9.36106 8.20105L15.7674 14.6074C16.0877 14.9277 16.0877 15.4471 15.7674 15.7674C15.6072 15.9276 15.3972 16.0077 15.1874 16.0077Z" fill="#FFE07D"/>
<path d="M9.88028 28.8203H0.820312C0.367281 28.8203 0 28.453 0 28C0 27.547 0.367281 27.1797 0.820312 27.1797H9.88028C10.3333 27.1797 10.7006 27.547 10.7006 28C10.7006 28.453 10.3333 28.8203 9.88028 28.8203Z" fill="#FFE07D"/>
<path d="M8.78104 48.0393C8.57104 48.0393 8.36115 47.9592 8.20102 47.799C7.88066 47.4786 7.88066 46.9592 8.20102 46.6389L14.6073 40.2326C14.9277 39.9123 15.4471 39.9123 15.7674 40.2326C16.0877 40.553 16.0877 41.0724 15.7674 41.3928L9.36106 47.7991C9.20093 47.9591 8.99104 48.0393 8.78104 48.0393Z" fill="#FFE07D"/>
<path d="M28 56C27.547 56 27.1797 55.6327 27.1797 55.1797V46.1198C27.1797 45.6668 27.547 45.2995 28 45.2995C28.453 45.2995 28.8203 45.6668 28.8203 46.1198V55.1797C28.8203 55.6327 28.453 56 28 56Z" fill="#FFE07D"/>
<path d="M47.2189 48.0393C47.0091 48.0393 46.7991 47.9592 46.6389 47.799L40.2326 41.3927C39.9123 41.0723 39.9123 40.5529 40.2326 40.2325C40.553 39.9122 41.0724 39.9122 41.3926 40.2325L47.799 46.6388C48.1193 46.9592 48.1193 47.4786 47.799 47.7989C47.6388 47.9591 47.4288 48.0393 47.2189 48.0393Z" fill="#FFE07D"/>
<path d="M55.1797 28.8203H46.1198C45.6668 28.8203 45.2995 28.453 45.2995 28C45.2995 27.547 45.6668 27.1797 46.1198 27.1797H55.1797C55.6327 27.1797 56 27.547 56 28C56 28.453 55.6327 28.8203 55.1797 28.8203Z" fill="#FFE07D"/>
<path d="M40.8126 16.0077C40.6027 16.0077 40.3927 15.9276 40.2326 15.7674C39.9123 15.447 39.9123 14.9276 40.2326 14.6074L46.6389 8.20105C46.9593 7.8807 47.4787 7.8807 47.799 8.20105C48.1193 8.52141 48.1193 9.04084 47.799 9.36109L41.3926 15.7674C41.2325 15.9276 41.0226 16.0077 40.8126 16.0077Z" fill="#FFE07D"/>
<path d="M21.0662 12.08C20.7443 12.08 20.4389 11.8893 20.308 11.5734L18.5744 7.3883C18.401 6.96972 18.5997 6.48989 19.0183 6.31653C19.4368 6.14317 19.9166 6.3419 20.0901 6.76048L21.8237 10.9456C21.997 11.3642 21.7983 11.844 21.3797 12.0174C21.2771 12.0599 21.1707 12.08 21.0662 12.08Z" fill="#FFF0AF"/>
<path d="M11.2592 21.8864C11.1545 21.8864 11.0482 21.8662 10.9456 21.8237L6.76048 20.0901C6.3419 19.9167 6.14317 19.4368 6.31653 19.0183C6.48989 18.5998 6.96983 18.4011 7.38829 18.5744L11.5734 20.308C11.992 20.4813 12.1907 20.9613 12.0174 21.3797C11.8866 21.6956 11.5811 21.8864 11.2592 21.8864Z" fill="#FFF0AF"/>
<path d="M7.07472 37.4883C6.75283 37.4883 6.44734 37.2975 6.31653 36.9816C6.14317 36.5631 6.3419 36.0832 6.76048 35.9099L10.9456 34.1763C11.3642 34.0029 11.844 34.2018 12.0174 34.6202C12.1907 35.0388 11.992 35.5186 11.5734 35.692L7.38829 37.4256C7.2857 37.468 7.17939 37.4883 7.07472 37.4883Z" fill="#FFF0AF"/>
<path d="M19.3319 49.7462C19.2273 49.7462 19.1209 49.726 19.0183 49.6835C18.5997 49.5101 18.401 49.0302 18.5744 48.6117L20.308 44.4266C20.4813 44.008 20.9614 43.8093 21.3797 43.9826C21.7983 44.156 21.997 44.6359 21.8237 45.0544L20.0901 49.2395C19.9593 49.5554 19.6538 49.7462 19.3319 49.7462Z" fill="#FFF0AF"/>
<path d="M36.668 49.7462C36.3461 49.7462 36.0407 49.5554 35.9098 49.2395L34.1762 45.0544C34.0028 44.6358 34.2017 44.156 34.6201 43.9826C35.0386 43.8093 35.5186 44.008 35.6919 44.4266L37.4255 48.6117C37.5989 49.0303 37.4001 49.5101 36.9816 49.6835C36.879 49.726 36.7726 49.7462 36.668 49.7462Z" fill="#FFF0AF"/>
<path d="M48.9253 37.4883C48.8207 37.4883 48.7143 37.4681 48.6117 37.4256L44.4266 35.692C44.008 35.5186 43.8093 35.0387 43.9826 34.6202C44.156 34.2017 44.636 34.0028 45.0544 34.1763L49.2395 35.9099C49.6581 36.0832 49.8568 36.5632 49.6835 36.9816C49.5527 37.2975 49.2472 37.4883 48.9253 37.4883Z" fill="#FFF0AF"/>
<path d="M44.7408 21.8864C44.4189 21.8864 44.1134 21.6956 43.9826 21.3798C43.8093 20.9612 44.008 20.4814 44.4266 20.308L48.6117 18.5744C49.0303 18.4013 49.5101 18.5998 49.6835 19.0184C49.8568 19.4369 49.6581 19.9168 49.2395 20.0901L45.0544 21.8237C44.9518 21.8663 44.8455 21.8864 44.7408 21.8864Z" fill="#FFF0AF"/>
<path d="M34.9338 12.08C34.8293 12.08 34.7229 12.0599 34.6203 12.0174C34.2017 11.844 34.0029 11.3641 34.1763 10.9456L35.9099 6.76047C36.0833 6.34189 36.5631 6.14305 36.9817 6.31651C37.4002 6.48987 37.599 6.96981 37.4256 7.38828L35.692 11.5734C35.5612 11.8893 35.2557 12.08 34.9338 12.08Z" fill="#FFF0AF"/>
</svg>
